<?xml version="1.0" encoding="utf-8"?>
<!DOCTYPE svg PUBLIC "-//W3C//DTD SVG 1.1//EN" "http://www.w3.org/Graphics/SVG/1.1/DTD/svg11.dtd">
<svg version="1.1" xmlns="http://www.w3.org/2000/svg" xmlns:xlink="http://www.w3.org/1999/xlink" x="0px"
	 y="0px" width="512px" height="512px" viewBox="0 0 512 512" enable-background="new 0 0 512 512" xml:space="preserve">
<path fill="#1B676B" d="M496,434.56c0,33.934-27.508,61.44-61.44,61.44H77.44C43.508,496,16,468.492,16,434.56V77.44
	C16,43.509,43.508,16,77.44,16h357.12C468.492,16,496,43.509,496,77.44V434.56z"/>
<path fill="#88C425" d="M162,76c-11.046,0-20,8.954-20,20v104H62c-11.046,0-20,8.954-20,20s8.954,20,20,20h80v176
	c0,11.046,8.954,20,20,20s20-8.954,20-20V96C182,84.954,173.046,76,162,76z"/>
<path fill="#88C425" d="M262,416c0,11.046-8.954,20-20,20l0,0c-11.046,0-20-8.954-20-20V288c0-11.046,8.954-20,20-20l0,0
	c11.046,0,20,8.954,20,20V416z"/>
<circle fill="#88C425" cx="242" cy="220" r="20"/>
<path fill="#EAFDE6" d="M414.284,352l49.856-49.857c7.812-7.811,7.812-20.475,0-28.285c-7.811-7.81-20.473-7.811-28.282,0
	L386,323.715l-49.857-49.857c-7.811-7.811-20.475-7.811-28.284,0c-7.811,7.812-7.812,20.474,0,28.285L357.715,352l-49.856,49.856
	c-7.812,7.811-7.812,20.475,0,28.284c7.811,7.811,20.475,7.812,28.284,0L386,380.284l49.856,49.856
	c7.811,7.812,20.475,7.812,28.284,0c7.811-7.811,7.812-20.475,0-28.284L414.284,352z"/>
</svg>
